<svg xmlns="http://www.w3.org/2000/svg" viewBox="0 0 168 280" width="168" height="280">
	<style>
		tspan { white-space:pre }
		.shp0 { fill: #4af6cd } 
		.shp1 { fill: #ffffff } 
	</style>
	<path id="Layer" fill-rule="evenodd" class="shp0" d="M0 -10L168 -10L168 181L0 181L0 -10Z" />
	<path id="Layer" fill-rule="evenodd" class="shp1" d="M60.22 145.36C60.22 142.2 60.68 139.42 61.6 137.02C62.52 134.58 63.9 132.4 65.74 130.48L71.62 135.46C69.34 138.34 68.2 141.36 68.2 144.52C68.2 146.16 68.52 147.42 69.16 148.3C69.76 149.14 70.62 149.56 71.74 149.56C72.54 149.56 73.2 149.34 73.72 148.9C74.24 148.46 74.74 147.72 75.22 146.68C75.7 145.64 76.3 144 77.02 141.76C78.38 137.48 80.1 134.36 82.18 132.4C84.22 130.4 87.06 129.4 90.7 129.4C93.34 129.4 95.68 130.08 97.72 131.44C99.72 132.8 101.28 134.78 102.4 137.38C103.52 139.94 104.08 142.96 104.08 146.44C104.08 153.08 102.06 158.5 98.02 162.7L91.96 157.24C94.68 153.92 96.04 150.46 96.04 146.86C96.04 144.98 95.64 143.52 94.84 142.48C94 141.44 92.9 140.92 91.54 140.92C90.58 140.92 89.8 141.12 89.2 141.52C88.56 141.92 88 142.64 87.52 143.68C87 144.68 86.44 146.16 85.84 148.12C84.36 152.84 82.58 156.16 80.5 158.08C78.42 160 75.8 160.96 72.64 160.96C70.16 160.96 67.98 160.3 66.1 158.98C64.22 157.62 62.78 155.76 61.78 153.4C60.74 151 60.22 148.32 60.22 145.36ZM89.02 91.96C91.9 91.96 94.48 92.6 96.76 93.88C99.04 95.12 100.84 97 102.16 99.52C103.44 102.03 104.08 105.11 104.08 108.75C104.08 114.28 102.74 118.45 100.06 121.3C97.34 124.14 93.66 125.56 89.02 125.56L61.3 125.56L61.3 114.45L88.66 114.45C91.18 114.45 93.04 114.02 94.24 113.14C95.4 112.22 95.98 110.75 95.98 108.75C95.98 106.75 95.38 105.31 94.18 104.44C92.98 103.56 91.14 103.11 88.66 103.11L61.3 103.11L61.3 91.96L89.02 91.96ZM87.64 71.95L87.64 75.01L103 75.01L103 86.11L61.3 86.11L61.3 71.65C61.3 65.77 62.36 61.39 64.48 58.51C66.6 55.59 69.86 54.13 74.26 54.13C76.9 54.13 79.1 54.75 80.86 55.99C82.62 57.19 84.2 59.13 85.6 61.81L103 51.43L103 63.79L87.64 71.95ZM80.08 75.01L80.08 71.29C80.08 67.45 78.14 65.53 74.26 65.53C72.46 65.53 71.14 66.07 70.3 67.15C69.46 68.19 69.04 69.77 69.04 71.89L69.04 75.01L80.08 75.01ZM103 48.9L61.3 48.9L61.3 23.28L69.16 24.42L69.16 37.8L79.18 37.8L79.18 26.04L87.04 26.04L87.04 37.8L103 37.8L103 48.9Z" />
	<path id="Layer" fill-rule="evenodd" class="shp1" d="M60.22 257.92C60.22 252.36 61.98 247.58 65.5 243.58L71.2 249.04C70.12 250.56 69.34 251.94 68.86 253.18C68.34 254.38 68.08 255.76 68.08 257.32C68.08 260.32 69.24 262.68 71.56 264.4C73.88 266.08 77.42 266.92 82.18 266.92C85.66 266.92 88.42 266.64 90.46 266.08C92.46 265.52 93.9 264.68 94.78 263.56C95.66 262.4 96.1 260.92 96.1 259.12C96.1 257.32 95.72 255.68 94.96 254.2L86.38 254.2L86.38 258.94L78.76 260.02L78.76 243.46L99.52 243.46C100.96 245.62 102.08 248.06 102.88 250.78C103.68 253.5 104.08 256.18 104.08 258.82C104.08 271.86 96.76 278.38 82.12 278.38C77.56 278.38 73.64 277.5 70.36 275.74C67.04 273.94 64.52 271.5 62.8 268.42C61.08 265.34 60.22 261.84 60.22 257.92ZM60.22 220.34C60.22 214.29 62.14 209.59 65.98 206.24C69.82 202.88 75.2 201.19 82.12 201.19C86.64 201.19 90.56 201.96 93.88 203.47C97.16 204.96 99.68 207.13 101.44 210.01C103.2 212.9 104.08 216.34 104.08 220.34C104.08 226.38 102.16 231.07 98.32 234.44C94.48 237.75 89.08 239.41 82.12 239.41C77.6 239.41 73.7 238.68 70.42 237.19C67.14 235.68 64.62 233.5 62.86 230.66C61.1 227.78 60.22 224.34 60.22 220.34ZM68.2 220.34C68.2 222.94 69.28 224.85 71.44 226.09C73.6 227.29 77.16 227.9 82.12 227.9C87.08 227.9 90.66 227.28 92.86 226.03C95.02 224.79 96.1 222.9 96.1 220.34C96.1 217.69 95.02 215.78 92.86 214.57C90.7 213.38 87.12 212.78 82.12 212.78C77.16 212.78 73.6 213.38 71.44 214.57C69.28 215.78 68.2 217.69 68.2 220.34Z" />
	<path id="Layer" class="shp1" d="M83 191L83 171L84 171L84 191L83 191Z" />
</svg>